<svg width="65" height="45" viewBox="0 0 65 45" fill="none" xmlns="http://www.w3.org/2000/svg">
<g clip-path="url(#clip0_1_180)">
<path d="M57.9536 6.61492C54.4153 2.78194 49.7013 0.497981 44.7109 0.198659C39.7208 -0.100581 34.804 1.60589 30.8984 4.99247H16.508C16.2354 4.99247 15.974 5.11009 15.7812 5.31944C15.5885 5.52879 15.4801 5.81273 15.4801 6.10879C15.4801 6.40486 15.5885 6.68879 15.7812 6.89815C15.974 7.1075 16.2354 7.2251 16.508 7.2251H28.7057C27.5669 8.55443 26.584 10.0317 25.7796 11.6234H9.61385C9.34123 11.6234 9.07977 11.741 8.88701 11.9504C8.69423 12.1597 8.58594 12.4437 8.58594 12.7396C8.58594 13.0357 8.69423 13.3197 8.88701 13.529C9.07977 13.7384 9.34123 13.856 9.61385 13.856H24.7924C23.5479 17.1734 23.0612 20.7685 23.3738 24.3348H16.521C16.2484 24.3348 15.987 24.4524 15.7942 24.6617C15.6014 24.8711 15.4931 25.155 15.4931 25.4511C15.4931 25.7472 15.6014 26.0311 15.7942 26.2405C15.987 26.4498 16.2484 26.5674 16.521 26.5674H23.6822C23.9464 28.0087 24.3436 29.4173 24.8677 30.7722H9.61304C9.34041 30.7722 9.07896 30.8898 8.8862 31.0992C8.69342 31.3085 8.58512 31.5924 8.58512 31.8885C8.58512 32.1846 8.69342 32.4686 8.8862 32.6779C9.07896 32.8872 9.34041 33.0048 9.61304 33.0048H25.8742C26.6534 34.538 27.6015 35.9625 28.6975 37.2468H7.11856C6.84594 37.2468 6.58448 37.3644 6.39171 37.5738C6.19894 37.7831 6.09064 38.0671 6.09064 38.3632C6.09064 38.6592 6.19894 38.9431 6.39171 39.1525C6.58448 39.3619 6.84594 39.4795 7.11856 39.4795H30.219C30.3989 39.4771 30.5756 39.4259 30.7329 39.3306C34.766 42.9628 39.9353 44.7626 45.1608 44.3542C50.3869 43.9457 55.2656 41.3605 58.7783 37.1386C62.291 32.9166 64.1661 27.3842 64.012 21.6961C63.858 16.0085 61.6867 10.6049 57.9516 6.61529L57.9536 6.61492ZM56.5008 36.2424C53.9471 39.0134 50.6943 40.9001 47.1534 41.6638C43.6125 42.4275 39.9426 42.0339 36.6071 40.5328C33.2722 39.0317 30.422 36.4907 28.4166 33.2307C26.4113 29.9707 25.341 26.1383 25.341 22.2176C25.341 18.2972 26.4113 14.4647 28.4166 11.2046C30.422 7.94465 33.2722 5.40352 36.6071 3.90244C39.9421 2.40137 43.612 2.00779 47.1534 2.77148C50.6948 3.53517 53.9471 5.4218 56.5008 8.19279C59.9193 11.9162 61.8389 16.9595 61.8389 22.2173C61.8389 27.4751 59.9193 32.5189 56.5008 36.2424Z" fill="white"/>
<path d="M43.5897 5.61002C40.5658 5.61002 37.61 6.58379 35.0958 8.40823C32.5816 10.2327 30.622 12.8257 29.4649 15.8596C28.3077 18.8934 28.0049 22.2318 28.5949 25.4525C29.1847 28.6733 30.6409 31.6317 32.7789 33.9537C34.9171 36.2757 37.6412 37.857 40.607 38.4977C43.5727 39.1383 46.6467 38.8095 49.4403 37.5528C52.2339 36.2962 54.6217 34.1681 56.3015 31.4377C57.9815 28.7073 58.8782 25.4972 58.8782 22.2134C58.8727 17.8117 57.2602 13.5921 54.3943 10.4792C51.5283 7.36675 47.6423 5.61602 43.5897 5.61002ZM44.6176 36.502V35.1997C44.6176 34.9036 44.5092 34.6196 44.3164 34.4103C44.1237 34.201 43.8623 34.0833 43.5897 34.0833C43.317 34.0833 43.0555 34.201 42.8628 34.4103C42.67 34.6196 42.5617 34.9036 42.5617 35.1997V36.502C39.4256 36.232 36.4806 34.7581 34.2542 32.3443C32.0279 29.9306 30.6656 26.7348 30.4117 23.3295H31.6315C31.9042 23.3295 32.1656 23.2119 32.3584 23.0026C32.5511 22.7932 32.6594 22.5092 32.6594 22.2132C32.6594 21.9171 32.5511 21.6332 32.3584 21.4238C32.1656 21.2145 31.9042 21.0968 31.6315 21.0968H30.4117C30.6596 17.6871 32.0194 14.4852 34.2464 12.0665C36.4735 9.64787 39.4219 8.17127 42.5617 7.90201V9.22667C42.5617 9.52273 42.67 9.80667 42.8628 10.016C43.0555 10.2254 43.317 10.3429 43.5897 10.3429C43.8623 10.3429 44.1237 10.2254 44.3164 10.016C44.5092 9.80667 44.6176 9.52273 44.6176 9.22667V7.90201C47.7573 8.17126 50.7057 9.64787 52.9328 12.0665C55.1599 14.4852 56.5196 17.6871 56.7675 21.0968H55.5477C55.2751 21.0968 55.0136 21.2145 54.8208 21.4238C54.6281 21.6332 54.5198 21.9171 54.5198 22.2132C54.5198 22.5092 54.6281 22.7932 54.8208 23.0026C55.0136 23.2119 55.2751 23.3295 55.5477 23.3295H56.7675C56.5136 26.7348 55.1513 29.9306 52.925 32.3443C50.6986 34.7581 47.7536 36.232 44.6176 36.502Z" fill="white"/>
<path d="M49.2365 24.8187L44.9261 21.8418L49.401 12.1671C49.4829 11.909 49.475 11.6272 49.3786 11.375C49.2822 11.1228 49.1041 10.9178 48.8779 10.7986C48.6516 10.6794 48.3931 10.6544 48.151 10.7284C47.909 10.8022 47.7003 10.9699 47.5644 11.1996L42.6715 21.715C42.5567 21.9618 42.5303 22.2461 42.5973 22.5128C42.6644 22.7795 42.8203 23.0097 43.0347 23.1588L48.1264 26.7013C48.2903 26.8141 48.4805 26.8735 48.6746 26.8724C48.8968 26.8734 49.1133 26.7961 49.2918 26.6522C49.4701 26.5083 49.6008 26.3054 49.6641 26.074C49.7274 25.8426 49.72 25.5952 49.6429 25.3689C49.5658 25.1425 49.4232 24.9496 49.2365 24.8187ZM13.1361 25.4439C13.1361 25.1478 13.0279 24.8638 12.8351 24.6545C12.6423 24.4451 12.3809 24.3275 12.1082 24.3275H1.2055C0.932882 24.3275 0.671419 24.4451 0.478654 24.6545C0.285888 24.8638 0.177582 25.1478 0.177582 25.4439C0.177582 25.7399 0.285878 26.0238 0.478654 26.2331C0.671429 26.4426 0.932882 26.5601 1.2055 26.5601H12.1214C12.3917 26.5562 12.6497 26.4369 12.8395 26.228C13.0293 26.019 13.1362 25.7373 13.1361 25.4439ZM6.24228 7.21846H12.1219C12.3946 7.21846 12.6561 7.10086 12.8488 6.8915C13.0416 6.68215 13.1499 6.39822 13.1499 6.10215C13.1499 5.80608 13.0416 5.52215 12.8488 5.3128C12.6561 5.10345 12.3946 4.98584 12.1219 4.98584H6.24228C5.96967 4.98584 5.70821 5.10345 5.51544 5.3128C5.32267 5.52215 5.21437 5.80608 5.21437 6.10215C5.21437 6.39822 5.32267 6.68215 5.51544 6.8915C5.70821 7.10086 5.96967 7.21846 6.24228 7.21846ZM5.1253 20.1308H18.6737C18.9463 20.1308 19.2078 20.0133 19.4006 19.8039C19.5934 19.5945 19.7017 19.3107 19.7017 19.0146C19.7017 18.7185 19.5934 18.4345 19.4006 18.2252C19.2078 18.0159 18.9463 17.8983 18.6737 17.8983H5.1253C4.85269 17.8983 4.59123 18.0159 4.39846 18.2252C4.20568 18.4345 4.09739 18.7185 4.09739 19.0146C4.09739 19.3107 4.20568 19.5945 4.39846 19.8039C4.59123 20.0133 4.85269 20.1308 5.1253 20.1308Z" fill="white"/>
</g>
<defs>
<clipPath id="clip0_1_180">
<rect width="64" height="44.69" fill="white" transform="translate(0.169983 0.165039)"/>
</clipPath>
</defs>
</svg>
