<svg width="52" height="65" viewBox="0 0 52 65" fill="none" xmlns="http://www.w3.org/2000/svg">
<g clip-path="url(#clip0_1_168)">
<path d="M25.5907 41.8046C21.3449 41.8046 17.3554 40.1494 14.3564 37.1507C11.3572 34.152 9.70195 30.1629 9.70195 25.9177C9.70195 21.6723 11.3574 17.6833 14.3564 14.6847C17.3554 11.6859 21.3449 10.0308 25.5907 10.0308C29.8365 10.0308 33.826 11.686 36.8251 14.6847C39.8241 17.6833 41.4795 21.6723 41.4795 25.9177C41.4795 30.1629 39.8241 34.152 36.8251 37.1507C33.8191 40.1564 29.8365 41.8046 25.5907 41.8046ZM25.5907 12.1226C17.9788 12.1226 11.7869 18.3138 11.7869 25.9248C11.7869 33.5357 17.979 39.727 25.5907 39.727C33.2025 39.727 39.3946 33.5356 39.3946 25.9248C39.3946 18.314 33.2026 12.1226 25.5907 12.1226Z" fill="white"/>
<path d="M23.2346 32.2945L17.7006 26.6728L19.1653 25.185L23.2346 29.3188L32.0158 20.4055L33.4806 21.8934L23.2346 32.2945Z" fill="white"/>
<path d="M25.5907 51.3154C24.5976 51.3154 23.6046 51.0724 22.6949 50.5863C22.5074 50.4892 22.3269 50.3781 22.1533 50.2601C21.8268 50.0448 21.5213 49.788 21.2435 49.5102L18.5908 46.8581C17.8269 46.0943 16.8061 45.6707 15.7229 45.6707H11.9729C8.5841 45.6707 5.82729 42.9145 5.82729 39.5262V35.777C5.82729 34.7078 5.39675 33.6593 4.6398 32.9095L1.98711 30.2574C-0.408698 27.8619 -0.408698 23.967 1.98711 21.5717L4.6398 18.9194C5.39672 18.1627 5.82729 17.1142 5.82729 16.0519V12.3027C5.82729 8.91456 8.58422 6.15819 11.9729 6.15819H15.7229C16.8061 6.15819 17.8269 5.73467 18.5908 4.97095L21.2435 2.31869C22.4032 1.15921 23.9448 0.520508 25.5907 0.520508C27.2365 0.520508 28.7711 1.15926 29.9378 2.31869L32.5905 4.97095C33.3544 5.74162 34.3751 6.15819 35.4585 6.15819H39.2084C42.5972 6.15819 45.3541 8.91456 45.3541 12.3027V16.0519C45.3541 17.1351 45.7777 18.1557 46.5416 18.9194L49.1943 21.5717C51.5901 23.967 51.5901 27.8619 49.1943 30.2574L46.5416 32.9095C45.7777 33.6733 45.3541 34.694 45.3541 35.777V39.5262C45.3541 42.9145 42.5972 45.6707 39.2084 45.6707H35.4585C34.3751 45.6707 33.3544 46.0943 32.5905 46.8581L29.9378 49.5102C29.66 49.788 29.3544 50.0448 29.0281 50.2601C28.8614 50.3781 28.674 50.4822 28.4864 50.5863C27.5768 51.0724 26.5837 51.3154 25.5907 51.3154ZM11.966 8.23475C9.72995 8.23475 7.90363 10.0539 7.90363 12.2964V16.0457C7.90363 17.6841 7.26475 19.2255 6.10511 20.385L3.45242 23.0372C1.86914 24.6203 1.86914 27.1961 3.45242 28.7791L6.10511 31.4313C7.2648 32.5908 7.90363 34.1321 7.90363 35.7775V39.5268C7.90363 41.7625 9.72308 43.5885 11.966 43.5885H15.7159C17.3547 43.5885 18.8963 44.2272 20.063 45.3866L22.7157 48.0389C22.9032 48.2264 23.1046 48.393 23.3198 48.5388C23.4309 48.6152 23.549 48.6846 23.6741 48.7541C24.8754 49.3928 26.306 49.3928 27.5003 48.7541C27.6254 48.6915 27.7434 48.6152 27.8545 48.5457C28.0698 48.4 28.2781 48.2333 28.4586 48.0459L31.1113 45.3936C32.2711 44.2342 33.8127 43.5954 35.4585 43.5954H39.2084C41.4445 43.5954 43.2708 41.7763 43.2708 39.5337V35.7845C43.2708 34.1459 43.9096 32.5977 45.0694 31.4382L47.7221 28.786C49.3054 27.2029 49.3054 24.6271 47.7221 23.0441L45.0694 20.3919C43.9096 19.2324 43.2708 17.6911 43.2708 16.0457V12.2964C43.2708 10.0607 41.4515 8.23475 39.2084 8.23475H35.4585C33.8196 8.23475 32.2711 7.59599 31.1113 6.43656L28.4586 3.7843C26.8753 2.20132 24.2991 2.20132 22.7157 3.7843L20.063 6.43656C18.9033 7.59604 17.3617 8.23475 15.7159 8.23475H11.966Z" fill="white"/>
<path d="M18.0844 64.4999L13.3022 58.5615L5.81034 59.71L11.9925 43.5406H15.735C17.3707 43.5406 18.9093 44.1848 20.0736 45.3543L22.7211 48.0294C22.9081 48.2184 23.1092 48.3865 23.3241 48.5336L24.0101 49.0027L18.0844 64.4999ZM14.1686 56.2997L17.4398 60.3612L21.5011 49.745C21.4179 49.668 21.3349 49.591 21.2586 49.514L18.6111 46.8389C17.8487 46.0686 16.8299 45.6414 15.7488 45.6414H13.4271L9.04683 57.0909L14.1686 56.2997ZM33.0961 64.4999L27.1705 48.9958L27.8566 48.5267C28.0715 48.3796 28.2725 48.2116 28.4596 48.0224L31.107 45.3473C32.2645 44.1779 33.8031 43.5337 35.4456 43.5337H39.1882L45.3702 59.7032L37.8783 58.5547L33.0961 64.4999ZM29.6794 49.745L33.7406 60.3683L37.0119 56.3067L42.1336 57.0909L37.7535 45.6414H35.4318C34.3506 45.6414 33.3318 46.0686 32.5694 46.8389L29.922 49.514C29.8457 49.591 29.7625 49.668 29.6794 49.745Z" fill="white"/>
</g>
<defs>
<clipPath id="clip0_1_168">
<rect width="51.19" height="63.98" fill="white" transform="translate(0.190029 0.52002)"/>
</clipPath>
</defs>
</svg>
