<svg width="64" height="76" viewBox="0 0 64 76" fill="none" xmlns="http://www.w3.org/2000/svg">
<path d="M16.5447 65.3226L13.4866 69.5055C13.3514 69.6904 13.1484 69.814 12.922 69.8492C12.6957 69.8843 12.4646 69.8282 12.2797 69.693L1.12323 61.5395C0.938299 61.4043 0.814652 61.2013 0.779476 60.9749C0.744297 60.7487 0.800474 60.5176 0.935651 60.3327L3.99372 56.1498C4.1289 55.9649 4.33199 55.8414 4.55833 55.8062C4.78467 55.771 5.01573 55.8271 5.20066 55.9623L16.3571 64.1158C16.5421 64.251 16.6658 64.4541 16.7008 64.6804C16.736 64.9066 16.6798 65.1377 16.5447 65.3226ZM12.6018 67.7892L14.6405 65.0005L4.87898 57.8662L2.84034 60.6548L12.6018 67.7892Z" fill="white"/>
<path d="M22.2846 54.545L15.1491 64.3051C15.014 64.49 14.8109 64.6135 14.5845 64.6487C14.3582 64.6839 14.1271 64.6278 13.9422 64.4926L5.57514 58.3774C5.39021 58.2422 5.26656 58.0392 5.23138 57.8129C5.1962 57.5866 5.25238 57.3556 5.38755 57.1707L12.523 47.4106C12.6582 47.2257 12.8613 47.1021 13.0876 47.0669C13.3139 47.0317 13.545 47.0879 13.7299 47.223L22.097 53.3381C22.2819 53.4733 22.4056 53.6764 22.4407 53.9027C22.4759 54.129 22.4198 54.3601 22.2846 54.545ZM14.2643 62.5886L20.3804 54.2229L13.4078 49.1269L7.29181 57.4927L14.2643 62.5886Z" fill="white"/>
<path d="M22.2857 54.5439C22.1505 54.7288 21.9474 54.8525 21.7211 54.8877C21.4946 54.9228 21.2637 54.8666 21.0788 54.7315L12.7117 48.6164C12.6011 48.5356 12.5114 48.4298 12.4499 48.3076C12.3883 48.1854 12.3566 48.0503 12.3575 47.9135C12.3584 47.7767 12.3918 47.642 12.4549 47.5206C12.518 47.3993 12.6092 47.2946 12.7207 47.2153L17.1733 44.0516C17.321 43.9465 17.4981 43.8907 17.6795 43.8919C17.8608 43.8931 18.0371 43.9513 18.1836 44.0583L23.7616 48.1351C23.908 48.242 24.017 48.3924 24.0733 48.5648C24.1295 48.7372 24.1299 48.9228 24.0747 49.0956L22.4111 54.2977C22.3827 54.386 22.3403 54.469 22.2857 54.5439ZM14.6981 47.9288L21.131 52.6304L22.2396 49.162L17.667 45.8201L14.6981 47.9288Z" fill="white"/>
<path d="M27.0071 45.1599L23.9491 49.3428C23.8139 49.5277 23.6109 49.6513 23.3845 49.6865C23.1581 49.7217 22.9271 49.6655 22.7422 49.5304L17.1641 45.4536C16.9792 45.3184 16.8555 45.1153 16.8203 44.889C16.7852 44.6628 16.8414 44.4318 16.9766 44.2469L20.0345 40.0639C20.1697 39.879 20.3728 39.7554 20.5991 39.7202C20.8256 39.6851 21.0566 39.7412 21.2415 39.8764L26.8196 43.9532C27.0045 44.0883 27.1281 44.2913 27.1633 44.5177C27.1985 44.744 27.1423 44.975 27.0071 45.1599ZM23.0642 47.6264L25.1029 44.8379L20.9195 41.7802L18.8807 44.5689L23.0642 47.6264Z" fill="white"/>
<path d="M45.3555 20.0612L41.2781 25.6385C41.143 25.8234 40.9398 25.9469 40.7135 25.9821C40.4872 26.0173 40.2562 25.9612 40.0712 25.826L27.5212 16.6533C25.8568 15.4369 23.7774 14.9314 21.7404 15.2479C19.7033 15.5645 17.8754 16.6772 16.6589 18.3412C15.4423 20.0054 14.9367 22.0844 15.2532 24.1212C15.5699 26.158 16.6827 27.9856 18.3471 29.2019L30.8971 38.3747C31.0821 38.5098 31.2056 38.7129 31.2408 38.9392C31.276 39.1656 31.2199 39.3966 31.0847 39.5815L27.0073 45.1587C26.8722 45.3436 26.669 45.4672 26.4427 45.5023C26.2163 45.5375 25.9854 45.4814 25.8004 45.3462L13.2503 36.1735C9.73679 33.6056 7.38743 29.7473 6.71899 25.4474C6.05056 21.1475 7.11795 16.7583 9.68626 13.2456C12.2545 9.73259 16.1135 7.38358 20.414 6.71524C24.7145 6.0469 29.1043 7.11414 32.6176 9.68206L45.1676 18.8548C45.3526 18.9899 45.4761 19.1931 45.5113 19.4193C45.5465 19.6457 45.4907 19.8764 45.3555 20.0612ZM40.3933 23.9221L43.4513 19.7392L31.5986 11.0761C28.4549 8.77851 24.527 7.82355 20.6792 8.42151C16.8314 9.01945 13.3787 11.1212 11.0807 14.2645C8.78279 17.4077 7.8278 21.335 8.42584 25.1822C9.02389 29.0295 11.126 32.4816 14.2697 34.7792L26.1235 43.4424L29.1815 39.2595L17.3287 30.5963C15.2945 29.1096 13.9343 26.8759 13.5474 24.3864C13.1604 21.8971 13.7784 19.3559 15.2653 17.3221C16.7522 15.2883 18.9863 13.9282 21.4761 13.5413C23.9658 13.1544 26.5074 13.7723 28.5415 15.2589L40.3953 23.9221H40.3933Z" fill="white"/>
<path d="M38.9702 34.6492C37.8614 36.166 36.3277 37.3198 34.5629 37.965C32.7981 38.6102 30.8817 38.7175 29.0559 38.2737C27.2301 37.8299 25.5769 36.8546 24.3055 35.4714C23.034 34.0881 22.2013 32.3589 21.9127 30.5025C21.6242 28.6461 21.8927 26.7458 22.6842 25.0418C23.4758 23.338 24.755 21.9071 26.3599 20.9301C27.9649 19.9532 29.8236 19.4739 31.7009 19.5531C33.5782 19.6323 35.3899 20.2664 36.9068 21.375C38.9385 22.8635 40.2967 25.097 40.6836 27.5856C41.0704 30.074 40.4542 32.6143 38.9702 34.6492ZM25.0254 24.4573C24.1182 25.6983 23.5994 27.1803 23.5346 28.716C23.4699 30.2519 23.862 31.7723 24.6614 33.0853C25.461 34.3983 26.6319 35.4447 28.0261 36.0922C29.4204 36.7398 30.9754 36.9594 32.4946 36.7233C34.0136 36.4872 35.4286 35.8061 36.5606 34.766C37.6926 33.7258 38.4906 32.3734 38.8538 30.8798C39.217 29.3862 39.1291 27.8185 38.6011 26.3748C38.0733 24.9311 37.129 23.6764 35.8879 22.7693C34.2227 21.5552 32.1439 21.051 30.1076 21.3675C28.0712 21.6839 26.2435 22.7951 25.0254 24.4573Z" fill="white"/>
<path d="M26.3131 67.3415C26.2643 67.412 26.2299 67.4913 26.2118 67.575C26.1937 67.6586 26.1923 67.7451 26.2076 67.8294C26.2229 67.9137 26.2547 67.9941 26.3012 68.0661C26.3476 68.138 26.4078 68.2002 26.4782 68.2489L34.0239 73.471C34.1664 73.5684 34.3417 73.6056 34.5115 73.5748C34.6814 73.5439 34.8322 73.4473 34.9313 73.306L57.7254 40.3766C57.8228 40.2341 57.8601 40.0589 57.8291 39.889C57.7982 39.7192 57.7016 39.5684 57.5603 39.4692L50.0172 34.2466C49.9468 34.1979 49.8675 34.1634 49.7837 34.1453C49.7 34.1272 49.6136 34.1258 49.5293 34.1411C49.445 34.1565 49.3646 34.1883 49.2926 34.2347C49.2206 34.2811 49.1584 34.3413 49.1098 34.4117L26.3131 67.3415ZM34.2347 72.027L27.7647 67.5493L28.4477 66.5628L29.6857 67.4226C29.7561 67.4713 29.8355 67.5057 29.9192 67.5237C30.003 67.5418 30.0894 67.5432 30.1737 67.5279C30.258 67.5126 30.3384 67.4808 30.4104 67.4345C30.4823 67.388 30.5445 67.3279 30.5932 67.2575C30.642 67.1871 30.6764 67.1078 30.6945 67.0241C30.7126 66.9403 30.714 66.8538 30.6987 66.7697C30.6833 66.6854 30.6516 66.6049 30.6051 66.533C30.5588 66.461 30.4986 66.3989 30.4281 66.3501L29.1838 65.4897L29.8668 64.5032L31.1112 65.3645C31.2536 65.4592 31.4274 65.4943 31.5953 65.4622C31.7632 65.43 31.9119 65.3332 32.0091 65.1927C32.1063 65.052 32.1443 64.8788 32.1152 64.7105C32.086 64.542 31.9917 64.3919 31.8528 64.2921L30.6084 63.4309L31.2915 62.4452L32.5359 63.3065C32.6783 63.4013 32.8521 63.4363 33.02 63.4042C33.1879 63.3721 33.3365 63.2753 33.4338 63.1347C33.531 62.9941 33.5691 62.821 33.5399 62.6525C33.5107 62.484 33.4165 62.3339 33.2775 62.2341L32.0314 61.3733L32.7136 60.3878L35.0191 61.9864C35.0897 62.0351 35.169 62.0694 35.2526 62.0875C35.3364 62.1056 35.4229 62.1071 35.5071 62.0917C35.5914 62.0764 35.6718 62.0446 35.7439 61.9983C35.8158 61.9518 35.8779 61.8917 35.9267 61.8213C35.9755 61.7508 36.0099 61.6715 36.0279 61.5879C36.046 61.5041 36.0474 61.4176 36.0321 61.3334C36.0167 61.2492 35.985 61.1688 35.9386 61.0967C35.8922 61.0248 35.832 60.9627 35.7616 60.9139L33.4556 59.318L34.1377 58.3317L35.3823 59.1929C35.4528 59.2415 35.5321 59.2757 35.6159 59.2937C35.6996 59.3116 35.7861 59.3129 35.8704 59.2973C35.9546 59.2819 36.0349 59.25 36.1069 59.2035C36.1788 59.1569 36.2408 59.0967 36.2894 59.0262C36.338 58.9557 36.3722 58.8762 36.3902 58.7925C36.4081 58.7088 36.4094 58.6223 36.3939 58.5381C36.3784 58.4538 36.3465 58.3735 36.3 58.3016C36.2534 58.2297 36.1932 58.1676 36.1227 58.1191L34.8781 57.2578L35.5611 56.2713L36.8048 57.1327C36.947 57.2311 37.1224 57.269 37.2927 57.238C37.4628 57.2071 37.6138 57.1098 37.7122 56.9676C37.8107 56.8254 37.8486 56.6499 37.8177 56.4798C37.7867 56.3096 37.6894 56.1587 37.5471 56.0602L36.3028 55.1998L36.9858 54.2133L38.2303 55.0746C38.3726 55.1694 38.5464 55.2044 38.7143 55.1723C38.8823 55.1402 39.0308 55.0434 39.1281 54.9028C39.2253 54.7622 39.2634 54.5891 39.2342 54.4206C39.205 54.2521 39.1108 54.102 38.9719 54.0022L37.7282 53.1408L38.4106 52.1553L40.7182 53.7509C40.8604 53.8493 41.0359 53.8873 41.2061 53.8563C41.3763 53.8254 41.5272 53.7281 41.6256 53.5859C41.7242 53.4437 41.762 53.2682 41.7311 53.098C41.7001 52.9278 41.6028 52.777 41.4606 52.6785L39.1547 51.0826L39.8369 50.0971L41.0812 50.9575C41.1515 51.0081 41.2312 51.044 41.3156 51.0634C41.3999 51.0829 41.4873 51.0853 41.5727 51.0706C41.658 51.0559 41.7395 51.0244 41.8124 50.9778C41.8855 50.9313 41.9485 50.8706 41.9978 50.7994C42.047 50.7283 42.0817 50.6481 42.0997 50.5634C42.1176 50.4786 42.1185 50.3913 42.1023 50.3062C42.0862 50.2211 42.0532 50.1403 42.0053 50.0681C41.9575 49.9958 41.8959 49.934 41.8238 49.886L40.5794 49.0247L41.2623 48.0382L42.5059 48.8996C42.6481 48.9944 42.8219 49.0297 42.9899 48.9978C43.1578 48.9658 43.3065 48.8691 43.4039 48.7286C43.5012 48.5881 43.5395 48.4149 43.5105 48.2466C43.4813 48.0781 43.3873 47.9277 43.2485 47.828L42.004 46.9667L42.687 45.9802L43.9306 46.8416C44.0729 46.94 44.2483 46.978 44.4186 46.947C44.5887 46.9161 44.7397 46.8188 44.8381 46.6765C44.9366 46.5343 44.9745 46.3588 44.9436 46.1887C44.9126 46.0185 44.8152 45.8675 44.673 45.7691L43.4284 44.9071L44.1114 43.9206L46.4173 45.5164C46.5596 45.6111 46.7334 45.6462 46.9013 45.6141C47.0693 45.582 47.2179 45.4852 47.3151 45.3446C47.4123 45.2041 47.4505 45.0308 47.4212 44.8624C47.392 44.694 47.2978 44.5438 47.1589 44.4441L44.8537 42.8481L45.5363 41.8642L46.7808 42.7255C46.8512 42.7743 46.9306 42.8087 47.0143 42.8268C47.0981 42.8448 47.1845 42.8462 47.2688 42.8309C47.3531 42.8156 47.4335 42.7838 47.5054 42.7374C47.5775 42.691 47.6396 42.6309 47.6884 42.5605C47.737 42.4901 47.7715 42.4108 47.7896 42.327C47.8077 42.2433 47.8091 42.1568 47.7938 42.0726C47.7784 41.9883 47.7466 41.9079 47.7002 41.836C47.6538 41.7639 47.5937 41.7018 47.5233 41.6531L46.2788 40.7918L46.961 39.8064L48.2053 40.6667C48.2756 40.7172 48.3553 40.7533 48.4397 40.7727C48.5241 40.7921 48.6115 40.7945 48.6968 40.7799C48.7821 40.7651 48.8636 40.7335 48.9367 40.687C49.0096 40.6404 49.0726 40.5798 49.1219 40.5087C49.1712 40.4375 49.2059 40.3572 49.2239 40.2726C49.2417 40.1879 49.2426 40.1005 49.2265 40.0154C49.2103 39.9304 49.1773 39.8494 49.1295 39.7772C49.0816 39.7051 49.02 39.6432 48.9479 39.5951L47.706 38.7334L48.389 37.7468L49.6275 38.6092C49.7697 38.7077 49.9453 38.7456 50.1154 38.7146C50.2857 38.6837 50.4365 38.5864 50.535 38.4442C50.6335 38.302 50.6714 38.1265 50.6404 37.9564C50.6094 37.7861 50.5122 37.6352 50.3699 37.5368L49.1256 36.6764L49.8086 35.6899L56.2786 40.1676L34.2347 72.027Z" fill="white"/>
<path d="M51.3503 40.3832C51.4725 40.468 51.6103 40.528 51.7556 40.5596C51.901 40.5912 52.0512 40.5937 52.1976 40.567C52.3441 40.5404 52.4838 40.4851 52.6087 40.4044C52.7337 40.3237 52.8415 40.219 52.9259 40.0965C53.7325 38.8276 51.9675 37.6111 51.0638 38.8076C50.9788 38.9298 50.9189 39.0675 50.8874 39.2129C50.8558 39.3583 50.8533 39.5085 50.8798 39.6549C50.9064 39.8012 50.9617 39.9409 51.0425 40.0659C51.1233 40.1908 51.2279 40.2986 51.3503 40.3832Z" fill="white"/>
</svg>
