<svg width="65" height="61" viewBox="0 0 65 61" fill="none" xmlns="http://www.w3.org/2000/svg">
<g clip-path="url(#clip0_1_156)">
<path d="M16.3502 60.83C15.9777 60.8291 15.609 60.7541 15.2658 60.6094C14.7553 60.403 14.3193 60.0472 14.0146 59.5887C13.7099 59.13 13.551 58.5901 13.5586 58.0396L13.5916 48.8841C13.59 48.5532 13.4573 48.2364 13.2227 48.0029C12.9881 47.7695 12.6707 47.6385 12.3397 47.6385L3.17998 47.6651C2.63044 47.6681 2.09241 47.5077 1.63427 47.2042C1.17612 46.9006 0.818567 46.4678 0.607042 45.9605C0.395517 45.4532 0.339562 44.8945 0.446296 44.3554C0.553032 43.8163 0.817635 43.3211 1.20648 42.9327L10.9319 33.2116C11.0181 33.1255 11.1237 33.0612 11.2398 33.0244C11.356 32.9877 11.4793 32.9793 11.5993 33C11.7194 33.0208 11.8327 33.0701 11.9297 33.1438C12.0269 33.2174 12.1048 33.3133 12.1571 33.4233C13.8354 36.952 16.4134 39.9763 19.6318 42.1919C22.8503 44.4075 26.5955 45.7361 30.4904 46.0441C30.6355 46.0555 30.7741 46.108 30.8901 46.1957C31.0061 46.2834 31.0945 46.4024 31.145 46.5388C31.1954 46.6753 31.2057 46.8232 31.1747 46.9653C31.1437 47.1073 31.0727 47.2375 30.9699 47.3404L18.287 60.0143C18.0339 60.2714 17.7326 60.4759 17.4001 60.6159C17.0677 60.7559 16.7108 60.8288 16.3502 60.83ZM12.3411 46.116C12.706 46.1158 13.0672 46.1877 13.4043 46.3275C13.7413 46.4674 14.0475 46.6724 14.305 46.9308C14.5627 47.1893 14.7667 47.4961 14.9054 47.8336C15.0442 48.1711 15.1149 48.5327 15.1136 48.8976L15.0806 58.053C15.0797 58.3009 15.1524 58.5435 15.2896 58.7498C15.4268 58.9563 15.6222 59.1173 15.8512 59.2124C16.08 59.3076 16.332 59.3326 16.5751 59.2843C16.8181 59.2359 17.0414 59.1164 17.2165 58.9409L28.7756 47.3842C25.0936 46.8391 21.5909 45.4374 18.5492 43.2919C15.5076 41.1464 13.0119 38.3168 11.2628 35.031L2.28183 44.0076C2.1068 44.1828 1.98771 44.4059 1.93962 44.6488C1.89153 44.8917 1.91662 45.1434 2.0117 45.372C2.10678 45.6006 2.26757 45.7959 2.47372 45.933C2.67986 46.0702 2.92206 46.1431 3.16964 46.1424L12.3306 46.1158L12.3411 46.116ZM48.0986 60.83C47.7369 60.8289 47.3789 60.7559 47.0455 60.6152C46.7122 60.4745 46.4101 60.2691 46.1569 60.0106L33.474 47.3367C33.3713 47.2337 33.3002 47.1035 33.2692 46.9614C33.2382 46.8194 33.2485 46.6714 33.2989 46.535C33.3493 46.3987 33.4378 46.2796 33.5538 46.1919C33.6698 46.1042 33.8084 46.0517 33.9535 46.0403C37.8484 45.7322 41.5936 44.4036 44.8121 42.1881C48.0305 39.9725 50.6085 36.9482 52.2868 33.4195C52.3391 33.3095 52.4171 33.2136 52.5141 33.1399C52.6111 33.0663 52.7245 33.017 52.8445 32.9962C52.9647 32.9755 53.0879 32.9839 53.204 33.0207C53.3202 33.0574 53.4259 33.1216 53.5121 33.2078L63.2375 42.9276C63.6252 43.3153 63.8894 43.8094 63.9965 44.3472C64.1035 44.885 64.0487 45.4424 63.839 45.9492C63.6293 46.4559 63.2739 46.8889 62.8181 47.1938C62.3622 47.4985 61.8262 47.6613 61.2779 47.6614H61.2691L52.1131 47.6385C51.9482 47.638 51.7847 47.6701 51.6323 47.7329C51.4798 47.7958 51.3413 47.8882 51.2245 48.0047C51.1079 48.1213 51.0154 48.2598 50.9524 48.4122C50.8894 48.5647 50.8572 48.728 50.8575 48.893L50.8904 58.0484C50.898 58.5989 50.7392 59.1389 50.4345 59.5975C50.1299 60.0561 49.6937 60.4119 49.1832 60.6182C48.8394 60.7599 48.4706 60.8319 48.0986 60.83ZM35.6694 47.3847L47.2285 58.9404C47.4036 59.1157 47.6267 59.2353 47.8698 59.2836C48.113 59.332 48.3649 59.307 48.5938 59.2119C48.8226 59.1168 49.0181 58.9558 49.1553 58.7493C49.2925 58.5428 49.3652 58.3003 49.3643 58.0525L49.3313 48.897C49.3302 48.5319 49.4011 48.1701 49.5403 47.8325C49.6792 47.4949 49.8837 47.1881 50.1417 46.9297C50.3997 46.6713 50.7062 46.4665 51.0435 46.327C51.3809 46.1874 51.7426 46.116 52.1077 46.1167H52.1178L61.2776 46.1483C61.5251 46.149 61.7673 46.0761 61.9735 45.939C62.1797 45.8018 62.3404 45.6066 62.4355 45.378C62.5306 45.1494 62.5557 44.8977 62.5076 44.6548C62.4596 44.4118 62.3404 44.1887 62.1654 44.0136L53.1845 35.037C51.4349 38.3218 48.9391 41.1501 45.8977 43.2947C42.8563 45.4393 39.3542 46.8403 35.6728 47.3851L35.6694 47.3847Z" fill="white"/>
<path d="M32.2238 47.6384C19.1423 47.6384 8.506 36.9939 8.506 23.9186C8.50336 21.5096 8.86862 19.1142 9.58913 16.8155C9.61646 16.7171 9.66331 16.6253 9.72687 16.5453C9.79045 16.4654 9.86945 16.3991 9.95919 16.3504C10.0489 16.3016 10.1475 16.2715 10.2492 16.2616C10.3508 16.2518 10.4534 16.2625 10.5508 16.2931C10.6482 16.3238 10.7384 16.3738 10.8161 16.44C10.8938 16.5062 10.9574 16.5875 11.0031 16.6788C11.0487 16.7702 11.0755 16.8698 11.0819 16.9718C11.0882 17.0737 11.074 17.1759 11.0401 17.2721C10.3671 19.4233 10.0258 21.6646 10.028 23.9186C10.028 36.1535 19.9817 46.1159 32.2235 46.1159C44.4652 46.1159 54.4257 36.1601 54.4257 23.9186C54.4257 11.677 44.4657 1.72128 32.2235 1.72128C28.5829 1.71987 24.998 2.61405 21.7845 4.32501C18.5709 6.03601 15.8276 8.51117 13.7961 11.5325C13.6835 11.7006 13.5086 11.8172 13.31 11.8565C13.1114 11.8957 12.9053 11.8545 12.7371 11.7417C12.5689 11.629 12.4524 11.4541 12.4132 11.2555C12.3739 11.0569 12.4152 10.8508 12.5278 10.6826C14.6991 7.45349 17.6313 4.80823 21.0661 2.98012C24.5008 1.1519 28.3326 0.196865 32.2235 0.199223C45.305 0.199223 55.9469 10.8387 55.9469 23.919C55.9469 36.9994 45.3049 47.6384 32.2238 47.6384Z" fill="white"/>
<path d="M11.2109 15.4079C11.0842 15.408 10.9594 15.3764 10.8479 15.316C10.7365 15.2556 10.6419 15.1684 10.5727 15.0622C10.5035 14.9559 10.462 14.8341 10.4518 14.7077C10.4417 14.5814 10.4633 14.4545 10.5146 14.3386C10.696 13.9289 10.885 13.5319 11.0765 13.1589C11.1717 12.9855 11.3309 12.8559 11.5201 12.7977C11.7092 12.7397 11.9137 12.7575 12.0899 12.8477C12.2661 12.9378 12.4004 13.093 12.464 13.2804C12.5277 13.4678 12.5159 13.6727 12.431 13.8516C12.2534 14.2003 12.0771 14.5707 11.9072 14.955C11.8474 15.0899 11.7499 15.2044 11.6263 15.2848C11.5027 15.3652 11.3584 15.408 11.2109 15.4079ZM32.2242 42.8182C21.7987 42.8182 13.3171 34.3389 13.3171 23.9185C13.3171 13.4981 21.7983 5.0188 32.2242 5.0188C42.6501 5.0188 51.1313 13.4969 51.1313 23.9185C51.1313 34.3401 42.6501 42.8182 32.2242 42.8182ZM32.2242 6.54129C22.6383 6.54129 14.8394 14.337 14.8394 23.9185C14.8394 33.5001 22.6383 41.2958 32.2242 41.2958C41.8101 41.2958 49.609 33.5001 49.609 23.9185C49.609 14.3368 41.8101 6.54129 32.2242 6.54129Z" fill="white"/>
<path d="M32.3507 37.5391C31.8125 37.5391 31.2963 37.3253 30.9158 36.9447C30.5352 36.5641 30.3215 36.0479 30.3215 35.5097V34.0865C30.32 34.0382 30.3021 33.9918 30.2704 33.9553C30.2386 33.9187 30.1953 33.8942 30.1477 33.8861C29.294 33.7332 28.4699 33.446 27.7062 33.035C27.0718 32.6811 26.4684 32.2742 25.9026 31.8185C25.625 31.6079 25.3924 31.3435 25.2191 31.041C25.0458 30.7386 24.9351 30.4044 24.8935 30.0582C24.852 29.7121 24.8806 29.3612 24.9776 29.0264C25.0745 28.6915 25.2378 28.3796 25.4579 28.1092C25.6779 27.8388 25.9502 27.6155 26.2583 27.4526C26.5664 27.2897 26.9042 27.1903 27.2515 27.1607C27.5989 27.131 27.9486 27.1716 28.2799 27.2799C28.6112 27.3883 28.9172 27.5622 29.1799 27.7914C30.1717 28.5968 31.1332 29.0344 32.0375 29.094C32.3823 29.1183 32.728 29.0633 33.0483 28.9333C33.3686 28.8034 33.655 28.602 33.8853 28.3443C34.1881 28.0105 34.3538 27.5748 34.3496 27.1242C34.3596 26.7032 34.2253 26.2914 33.9691 25.9572C33.7737 25.7098 33.2893 25.2938 32.1224 24.756C29.9118 23.7336 28.4443 22.9359 27.6351 22.3156C26.8456 21.7286 26.1959 20.974 25.7327 20.1061C25.3064 19.2831 25.0854 18.3692 25.0884 17.4424C25.0799 16.6888 25.2277 15.9417 25.5224 15.2481C25.817 14.5545 26.2523 13.9295 26.8006 13.4126C27.7828 12.4544 29.0558 11.8503 30.419 11.6951C30.5589 11.2629 30.8397 10.89 31.2165 10.6363C31.5934 10.3826 32.0444 10.2626 32.4975 10.2957C32.9505 10.3287 33.3793 10.5128 33.7155 10.8185C34.0515 11.1242 34.2752 11.5339 34.3508 11.9818C34.9999 12.1645 35.6246 12.4246 36.2114 12.7568C36.4255 12.8815 36.6325 13.0179 36.8317 13.1652C37.1353 13.3875 37.3868 13.6734 37.5685 14.0028C37.7504 14.3322 37.8583 14.6975 37.8846 15.0728C37.9108 15.4482 37.855 15.8249 37.721 16.1764C37.5868 16.5281 37.3778 16.8461 37.1081 17.1088C36.6717 17.5298 36.1021 17.7856 35.4974 17.8319C34.8927 17.8782 34.2908 17.7121 33.7953 17.3624C33.132 16.8969 32.4801 16.661 31.8587 16.661C31.3513 16.661 30.9708 16.7802 30.6867 17.025C30.3531 17.3091 30.3138 17.5501 30.3138 17.7062C30.3138 17.9065 30.4331 18.1336 30.6689 18.3796L30.6816 18.3937C30.8452 18.5724 31.3157 18.9543 32.645 19.4959C34.73 20.3597 36.1303 21.0864 36.9306 21.7207C37.7394 22.3545 38.3931 23.1644 38.842 24.0888C39.296 25.0517 39.525 26.1052 39.5116 27.1698C39.5196 28.2615 39.2761 29.3405 38.8001 30.3231C38.3725 31.2322 37.7363 32.0274 36.9433 32.6443C36.337 33.1034 35.5253 33.4738 34.5335 33.7453C34.4905 33.7568 34.4522 33.7818 34.4246 33.8168C34.3968 33.8517 34.3812 33.8947 34.38 33.9393V35.5134C34.379 36.051 34.1648 36.5663 33.7843 36.946C33.4038 37.3258 32.8883 37.5391 32.3507 37.5391ZM27.5312 28.7274C27.3845 28.7279 27.2396 28.7582 27.1051 28.8167C26.9707 28.8751 26.8496 28.9603 26.7492 29.0672C26.649 29.1741 26.5715 29.3004 26.5216 29.4382C26.4718 29.5761 26.4506 29.7226 26.4594 29.8691C26.4672 30.0162 26.506 30.1602 26.5733 30.2913C26.6406 30.4225 26.7349 30.5379 26.85 30.6301C27.3485 31.0311 27.8796 31.3896 28.4379 31.7019C29.061 32.0341 29.7326 32.2662 30.4279 32.3894C30.8246 32.4632 31.1829 32.6731 31.4414 32.983C31.6998 33.2927 31.8419 33.683 31.8434 34.0865V35.5109C31.8434 35.6455 31.8968 35.7745 31.992 35.8696C32.0871 35.9648 32.2161 36.0183 32.3507 36.0183C32.4852 36.0183 32.6143 35.9648 32.7094 35.8696C32.8046 35.7745 32.8581 35.6455 32.8581 35.5109V33.9393C32.8584 33.5611 32.9826 33.1935 33.2116 32.8925C33.4406 32.5915 33.7619 32.3737 34.1264 32.2727C34.933 32.052 35.5709 31.7653 36.0289 31.4253C36.6305 30.952 37.1124 30.3437 37.4354 29.6496C37.8093 28.8755 37.9999 28.0257 37.9922 27.166C38.0053 26.331 37.8283 25.5038 37.4747 24.7472C37.1246 24.0274 36.6149 23.397 35.9844 22.9041C35.3072 22.3663 33.9882 21.6903 32.0666 20.8949C30.8351 20.3876 30.0145 19.9081 29.563 19.4172C29.0557 18.8782 28.7918 18.2998 28.7918 17.6972C28.7918 17.2115 28.9491 16.4973 29.7 15.8568C30.2669 15.3748 30.9924 15.13 31.8561 15.13C32.7972 15.13 33.7433 15.4585 34.6666 16.108C34.8716 16.2544 35.1212 16.325 35.3724 16.3076C35.6237 16.2902 35.8611 16.186 36.044 16.0129L36.5742 16.557L36.044 16.0116C36.1551 15.9034 36.2413 15.7722 36.2965 15.6274C36.3516 15.4826 36.3747 15.3273 36.3638 15.1727C36.353 15.018 36.3085 14.8675 36.2335 14.7319C36.1587 14.5961 36.055 14.4784 35.9299 14.3867C35.775 14.2724 35.6142 14.1666 35.448 14.0697C34.8161 13.7228 34.1379 13.4688 33.4339 13.3149C33.2673 13.2753 33.119 13.1805 33.0129 13.0461C32.9068 12.9117 32.8491 12.7455 32.8492 12.5741V12.3205C32.8492 12.1859 32.7958 12.0569 32.7006 11.9618C32.6055 11.8665 32.4764 11.8131 32.3419 11.8131C32.2073 11.8131 32.0783 11.8665 31.9832 11.9618C31.888 12.0569 31.8345 12.1859 31.8345 12.3205V12.4017C31.8347 12.5975 31.7594 12.7859 31.6244 12.9276C31.4892 13.0694 31.3046 13.1536 31.109 13.1627C29.7785 13.2261 28.7145 13.6701 27.8558 14.5047C27.4526 14.8805 27.1328 15.3369 26.9174 15.8443C26.7019 16.3517 26.5956 16.8988 26.6053 17.4499C26.6008 18.1333 26.7636 18.8074 27.0796 19.4134C27.442 20.0819 27.9474 20.6623 28.5598 21.1132C29.2675 21.656 30.6804 22.4183 32.7578 23.3785C33.931 23.9201 34.7187 24.4592 35.1677 25.0274C35.6326 25.6285 35.8802 26.3694 35.8702 27.1293C35.8759 27.9475 35.5771 28.7386 35.0319 29.349C34.6475 29.7832 34.1687 30.1233 33.6322 30.3432C33.0956 30.563 32.5158 30.6569 31.9372 30.6174C30.7121 30.5387 29.4615 29.9831 28.2198 28.9786C28.0263 28.8177 27.7829 28.729 27.5312 28.7274Z" fill="white"/>
</g>
<defs>
<clipPath id="clip0_1_156">
<rect width="64" height="60.63" fill="white" transform="translate(0.390015 0.199951)"/>
</clipPath>
</defs>
</svg>
